<?xml version="1.0" encoding="utf-8"?>
<!-- Generator: Adobe Illustrator 27.5.0, SVG Export Plug-In . SVG Version: 6.00 Build 0)  -->
<svg version="1.1" id="Warstwa_1" xmlns="http://www.w3.org/2000/svg" xmlns:xlink="http://www.w3.org/1999/xlink" x="0px" y="0px"
	 viewBox="0 0 322 322" style="enable-background:new 0 0 322 322;" xml:space="preserve">
<style type="text/css">
	.st0{fill:#FFFFFF;}
	.st1{fill-rule:evenodd;clip-rule:evenodd;fill:#E1E1E0;}
	.st2{fill:#F8F7F7;}
</style>
<path class="st0" d="M161,0C72.2,0,0,72.2,0,161c0,49.3,22.3,93.6,57.4,123.1c18.7,15.8,41.1,27.4,65.5,33.3c12.3,3,25,4.6,38.1,4.6
	c13.1,0,25.9-1.6,38.1-4.6c24.6-6,46.9-17.6,65.5-33.3c35-29.5,57.4-73.8,57.4-123.1C322,72.2,249.8,0,161,0z"/>
<path class="st1" d="M264.7,279.9c-18.7,15.8-41.1,27.4-65.5,33.3h-76.3c-24.6-6-46.9-17.6-65.5-33.3c0.8-2.3,1.8-4.8,3-7.3
	c1.1-2.3,2.2-4.6,3.6-6.9c3.3-5.6,7.6-11.1,13.2-16.2c9.8-9.1,23.5-16.9,42.6-21.5l12.3-13.4l0,0c1.9-2.5,3.2-5.4,4.2-8.3
	c-2.6-2-5-4.1-7.1-6.2c-7.3-7.1-17.7-20.2-18.8-31.2c-5.7-5.9-11.1-13-13.9-20.7c-2.3-6.2-3.1-13.5,0.8-19.4c1.4-2,3.1-3.6,5-4.7
	c-1.7-2.5-1.9-6.5-1.9-10.9c0-12.5-15.7-61.7,60.9-61.7c64.9,0,61.1,55.7,58.4,72.4c2.1,1.2,4,2.9,5.4,5c3.9,5.8,3.1,13.1,0.8,19.4
	c-2.9,7.6-8.3,14.8-13.9,20.7c-1.2,11-11.5,24-18.8,31.2c-2,2-4.2,4-6.8,5.9c1,2.9,1.9,5.8,3.8,8.6h0.1l12.4,13.7l-0.2-0.2
	c19.1,4.7,32.8,12.5,42.6,21.5c5.5,5.1,9.8,10.7,13.1,16.2c1.4,2.3,2.5,4.6,3.6,6.9C262.9,275,263.9,277.4,264.7,279.9z"/>
<g>
	<path class="st2" d="M161,0C72.2,0,0,72.2,0,161c0,49.3,22.3,93.6,57.4,123.1c18.7,15.8,41.1,27.4,65.5,33.3
		c12.3,3,25,4.6,38.1,4.6c13.1,0,25.9-1.6,38.1-4.6c24.6-6,46.9-17.6,65.5-33.3c35-29.5,57.4-73.8,57.4-123.1
		C322,72.2,249.8,0,161,0z M161,307.1c-37.3,0-71.2-14-97.1-37c-30.1-26.8-49-65.7-49-109C14.9,80.4,80.4,14.9,161,14.9
		S307.1,80.4,307.1,161c0,43.3-18.9,82.2-48.9,109C232.2,293,198.3,307.1,161,307.1z"/>
</g>
</svg>
