<?xml version="1.0" encoding="utf-8"?>
<!-- Generator: Adobe Illustrator 27.5.0, SVG Export Plug-In . SVG Version: 6.00 Build 0)  -->
<svg version="1.1" id="Warstwa_1" xmlns="http://www.w3.org/2000/svg" xmlns:xlink="http://www.w3.org/1999/xlink" x="0px" y="0px"
	 viewBox="0 0 304.2 304.2" style="enable-background:new 0 0 304.2 304.2;" xml:space="preserve">
<style type="text/css">
	.st0{fill:#FFFFFF;}
	.st1{fill-rule:evenodd;clip-rule:evenodd;fill:#E1E1E0;}
	.st2{fill:#F8F7F7;}
</style>
<path class="st0" d="M152.2,0.1c-83.8,0-152,68.1-152,152c0,46.6,21.1,88.3,54.2,116.2c17.7,14.9,38.8,25.9,61.8,31.5
	c11.6,2.8,23.6,4.3,36,4.3c12.4,0,24.5-1.5,36-4.3c23.2-5.7,44.3-16.6,61.8-31.5c33.1-27.9,54.2-69.6,54.2-116.2
	C304.2,68.3,236,0.1,152.2,0.1z"/>
<path class="st1" d="M250.1,264.4c-17.7,14.9-38.8,25.9-61.9,31.5h-72.1c-23.2-5.7-44.3-16.6-61.9-31.5c0.8-2.2,1.7-4.5,2.8-6.9
	c1-2.2,2.1-4.3,3.4-6.5c3.1-5.3,7.2-10.5,12.5-15.3c9.3-8.6,22.2-16,40.2-20.3l11.6-12.7l0,0c1.8-2.4,3-5.1,4-7.8
	c-2.5-1.9-4.7-3.9-6.7-5.9c-6.9-6.7-16.7-19.1-17.8-29.5c-5.4-5.6-10.5-12.3-13.1-19.6c-2.2-5.9-2.9-12.8,0.8-18.3
	c1.3-1.9,2.9-3.4,4.7-4.4c-1.6-2.4-1.8-6.1-1.8-10.3c0-11.8-14.8-58.3,57.5-58.3c61.3,0,57.7,52.6,55.2,68.4c2,1.1,3.8,2.7,5.1,4.7
	c3.7,5.5,2.9,12.4,0.8,18.3c-2.7,7.2-7.8,14-13.1,19.6c-1.1,10.4-10.9,22.7-17.8,29.5c-1.9,1.9-4,3.8-6.4,5.6
	c0.9,2.7,1.8,5.5,3.6,8.1h0.1l11.7,12.9l-0.2-0.2c18,4.4,31,11.8,40.2,20.3c5.2,4.8,9.3,10.1,12.4,15.3c1.3,2.2,2.4,4.3,3.4,6.5
	C248.4,259.8,249.3,262.1,250.1,264.4z"/>
<g>
	<path class="st2" d="M152.2,0.1c-83.8,0-152,68.1-152,152c0,46.6,21.1,88.3,54.2,116.2c17.7,14.9,38.8,25.9,61.8,31.5
		c11.6,2.8,23.6,4.3,36,4.3c12.4,0,24.5-1.5,36-4.3c23.2-5.7,44.3-16.6,61.8-31.5c33.1-27.9,54.2-69.6,54.2-116.2
		C304.2,68.3,236,0.1,152.2,0.1z M152.2,290c-35.2,0-67.2-13.2-91.6-35c-28.4-25.3-46.3-62-46.3-102.9c0-76,61.8-137.9,137.9-137.9
		s137.9,61.8,137.9,137.9c0,40.9-17.9,77.6-46.2,102.9C219.4,276.7,187.4,290,152.2,290z"/>
</g>
</svg>
